<?xml version="1.0" encoding="UTF-8" standalone="no"?>
<svg
   fill="none"
   viewBox="0 0 24 24"
   id="Airflow-Icon--Streamline-Svg-Logos"
   height="24"
   width="24"
   version="1.1"
   sodipodi:docname="af.svg"
   inkscape:version="1.4.2 (f4327f4, 2025-05-13)"
   xmlns:inkscape="http://www.inkscape.org/namespaces/inkscape"
   xmlns:sodipodi="http://sodipodi.sourceforge.net/DTD/sodipodi-0.dtd"
   xmlns="http://www.w3.org/2000/svg"
   xmlns:svg="http://www.w3.org/2000/svg">
  <defs
     id="defs9" />
  <sodipodi:namedview
     id="namedview9"
     pagecolor="#ffffff"
     bordercolor="#000000"
     borderopacity="0.25"
     inkscape:showpageshadow="2"
     inkscape:pageopacity="0.0"
     inkscape:pagecheckerboard="0"
     inkscape:deskcolor="#d1d1d1"
     inkscape:zoom="23.776466"
     inkscape:cx="9.6944601"
     inkscape:cy="8.9374089"
     inkscape:window-width="1920"
     inkscape:window-height="1009"
     inkscape:window-x="-8"
     inkscape:window-y="-8"
     inkscape:window-maximized="1"
     inkscape:current-layer="Airflow-Icon--Streamline-Svg-Logos" />
  <desc
     id="desc1">
    Airflow Icon Streamline Icon: https://streamlinehq.com
  </desc>
  <g
     id="g9"
     transform="matrix(0.66950509,0,0,0.66950509,3.9659432,3.9659441)">
    <path
       fill="#017cee"
       d="M 0.6288175,23.656425 11.88025,12.123175 c 0.07167,-0.07082 0.08227,-0.18285 0.02515,-0.26585 C 11.221225,10.9021 9.95865,10.73645 9.4908,10.094575 8.1049,8.193325 7.753225,7.117175 7.15765,7.183825 7.1161,7.1898 7.077875,7.209975 7.049475,7.240925 l -4.06435,4.166525 c -2.338345,2.395025 -2.6744475,7.674075 -2.7351225,12.0949 -4.0175e-4,0.08997 0.0539625,0.171175 0.137325,0.205075 0.08336,0.03392 0.1789625,0.01373 0.24149,-0.051 z"
       stroke-width="0.25"
       id="path1" />
    <path
       fill="#00ad46"
       d="m 23.655725,23.371825 -11.53325,-11.25225 c -0.07087,-0.07187 -0.18315,-0.0825 -0.26625,-0.02512 -0.955225,0.684575 -1.120875,1.94675 -1.762725,2.414575 -1.901275,1.385925 -2.977425,1.7376 -2.910775,2.33315 0.00608,0.04143 0.026225,0.07947 0.0571,0.107775 l 4.166525,4.064375 c 2.39505,2.338325 7.674075,2.674425 12.0949,2.7351 0.08953,0 0.170175,-0.05405 0.204075,-0.1369 0.0339,-0.08288 0.0143,-0.178 -0.0496,-0.2407 z"
       stroke-width="0.25"
       id="path2" />
    <path
       fill="#04d659"
       d="M 11.40645,21.01545 C 10.097175,19.7381 9.490425,17.21135 11.999625,12.000975 7.9205,13.824 6.491075,16.220225 7.194,16.9064 Z"
       stroke-width="0.25"
       id="path3" />
    <path
       fill="#00c7d4"
       d="m 23.370825,0.34528 -11.25105,11.533245 c -0.07183,0.07075 -0.08243,0.182875 -0.02513,0.26585 0.684575,0.955225 1.94635,1.120875 2.414575,1.76275 1.385925,1.90125 1.738,2.9774 2.33315,2.91075 0.0416,-0.0059 0.07982,-0.0261 0.108175,-0.0571 l 4.06438,-4.166525 C 23.35325,10.199225 23.68935,4.920175 23.750025,0.49936 23.7502,0.409385 23.69575,0.3283125 23.612375,0.2944425 23.529025,0.2605725 23.43345,0.280685 23.370825,0.34528 Z"
       stroke-width="0.25"
       id="path4" />
    <path
       fill="#11e1ee"
       d="m 21.016825,12.59415 c -1.27735,1.309275 -3.8041,1.916025 -9.014875,-0.593175 1.823025,4.079125 4.21925,5.50855 4.905425,4.805625 z"
       stroke-width="0.25"
       id="path5" />
    <path
       fill="#e43921"
       d="M 0.3434325,0.6298325 11.876675,11.880875 c 0.07082,0.07168 0.18285,0.08228 0.26585,0.02515 0.955225,-0.6846 1.120875,-1.946775 1.76275,-2.4146 1.90125,-1.385925 2.9774,-1.7376 2.91075,-2.33315 C 16.80995,7.11675 16.7898,7.07855 16.75895,7.0501 L 12.5924,2.98575 C 10.197375,0.647395 4.918325,0.3112925 0.4975125,0.250615 c -0.090175,-5.7e-4 -0.1715975,0.0538575 -0.20554,0.1374 -0.033945,0.08354 -0.01356,0.179335 0.05146,0.2418175 z"
       stroke-width="0.25"
       id="path6" />
    <path
       fill="#ff7557"
       d="m 12.5944,2.9862 c 1.309275,1.27735 1.916,3.8041 -0.593175,9.014875 4.079125,-1.823 5.50855,-4.219625 4.805625,-4.9054 z"
       stroke-width="0.25"
       id="path7" />
    <path
       fill="#0cb6ff"
       d="M 2.9851,11.407925 C 4.26245,10.09865 6.7892,9.4919 11.999975,12.0011 10.176975,7.92195 7.78075,6.492525 7.094575,7.195475 Z"
       stroke-width="0.25"
       id="path8" />
    <path
       fill="#4a4848"
       d="m 12.001625,12.502 c 0.277775,0 0.50295,-0.225175 0.50295,-0.50295 0,-0.277775 -0.225175,-0.50295 -0.50295,-0.50295 -0.277775,0 -0.502975,0.225175 -0.502975,0.50295 0,0.277775 0.2252,0.50295 0.502975,0.50295 z"
       stroke-width="0.25"
       id="path9" />
  </g>
</svg>
