<?xml version="1.0" encoding="UTF-8" standalone="no"?>
<svg
   viewBox="0 0 128 128"
   version="1.1"
   id="svg8"
   sodipodi:docname="apache_airflow.svg"
   inkscape:version="1.4.2 (f4327f4, 2025-05-13)"
   xmlns:inkscape="http://www.inkscape.org/namespaces/inkscape"
   xmlns:sodipodi="http://sodipodi.sourceforge.net/DTD/sodipodi-0.dtd"
   xmlns="http://www.w3.org/2000/svg"
   xmlns:svg="http://www.w3.org/2000/svg">
  <defs
     id="defs8" />
  <sodipodi:namedview
     id="namedview8"
     pagecolor="#ffffff"
     bordercolor="#000000"
     borderopacity="0.25"
     inkscape:showpageshadow="2"
     inkscape:pageopacity="0.0"
     inkscape:pagecheckerboard="0"
     inkscape:deskcolor="#d1d1d1"
     inkscape:zoom="4.4580873"
     inkscape:cx="39.142347"
     inkscape:cy="74.807867"
     inkscape:window-width="1920"
     inkscape:window-height="1009"
     inkscape:window-x="1912"
     inkscape:window-y="-8"
     inkscape:window-maximized="1"
     inkscape:current-layer="svg8" />
  <g
     id="g8"
     transform="matrix(0.77746074,0,0,0.81984696,14.242078,11.529914)">
    <path
       d="M 2.5441,127 63.3531,64.668 A 1.124,1.124 0 0 0 63.489,63.2312 C 59.7913,58.0687 52.968,57.1734 50.439,53.7044 42.9487,43.4294 41.0481,37.6124 37.829,37.9734 a 0.98374,0.98374 0 0 0 -0.58464,0.3085 l -21.966,22.518 c -12.638,12.944 -14.454,41.475 -14.782,65.367 a 1.1908,1.1908 0 0 0 2.0473,0.83273 z"
       fill="#017cee"
       id="path1" />
    <path
       d="M 126.99,125.46 64.658,64.647 a 1.124,1.124 0 0 0 -1.4389,-0.1359 c -5.1625,3.6998 -6.0578,10.521 -9.5268,13.05 -10.275,7.4903 -16.092,9.3909 -15.731,12.61 a 0.98374,0.98374 0 0 0 0.3085,0.58248 l 22.518,21.966 c 12.944,12.638 41.475,14.454 65.367,14.782 a 1.1908,1.1908 0 0 0 0.83489,-2.0408 z"
       fill="#00ad46"
       id="path2" />
    <path
       d="M 60.792,112.72 C 53.716,105.8165 50.437,92.161 63.9978,64.001 41.9518,73.8535 34.2268,86.804 38.0258,90.512 Z"
       fill="#04d659"
       id="path3" />
    <path
       d="m 125.45,1.0113 -60.807,62.332 a 1.1218,1.1218 0 0 0 -0.1359,1.4368 c 3.6998,5.1625 10.519,6.0578 13.05,9.5268 7.4903,10.275 9.393,16.092 12.61,15.731 a 0.97943,0.97943 0 0 0 0.58464,-0.3085 l 21.966,-22.518 c 12.638,-12.944 14.454,-41.475 14.782,-65.367 a 1.193,1.193 0 0 0 -2.0495,-0.83273 z"
       fill="#00c7d4"
       id="path4" />
    <path
       d="m 112.73,67.211 c -6.9035,7.076 -20.559,10.355 -48.721,-3.2058 9.8525,22.046 22.803,29.771 26.511,25.972 z"
       fill="#11e1ee"
       id="path5" />
    <path
       d="m 1.0017,2.5495 62.332,60.807 a 1.124,1.124 0 0 0 1.4368,0.1359 c 5.1625,-3.6998 6.0578,-10.521 9.5268,-13.05 10.275,-7.4903 16.092,-9.3909 15.731,-12.61 a 0.99022,0.99022 0 0 0 -0.3085,-0.58463 l -22.518,-21.966 C 54.2578,2.64377 25.7268,0.82777 1.8348,0.49977 a 1.1908,1.1908 0 0 0 -0.83273,2.0495 z"
       fill="#e43921"
       id="path6" />
    <path
       d="m 67.212,15.284 c 7.076,6.9035 10.355,20.559 -3.2058,48.721 22.046,-9.8525 29.771,-22.805 25.972,-26.511 z"
       fill="#ff7557"
       id="path7" />
    <path
       d="M 15.279,60.8 C 22.1825,53.724 35.838,50.445 64,64.0058 54.1475,41.9598 41.197,34.2348 37.489,38.0338 Z"
       fill="#0cb6ff"
       id="path8" />
    <circle
       cx="64.009003"
       cy="63.994999"
       fill="#4a4848"
       id="circle8"
       r="2.7182" />
  </g>
</svg>
