<?xml version="1.0" encoding="UTF-8" standalone="no"?>
<svg
   version="1.1"
   id="Layer_1"
   x="0px"
   y="0px"
   viewBox="0 0 40.1 42"
   style="enable-background:new 0 0 40.1 42;"
   xml:space="preserve"
   sodipodi:docname="db.svg"
   inkscape:version="1.4.2 (f4327f4, 2025-05-13)"
   xmlns:inkscape="http://www.inkscape.org/namespaces/inkscape"
   xmlns:sodipodi="http://sodipodi.sourceforge.net/DTD/sodipodi-0.dtd"
   xmlns="http://www.w3.org/2000/svg"
   xmlns:svg="http://www.w3.org/2000/svg"
   xmlns:ns="ns_sfw;"><defs
   id="defs1" /><sodipodi:namedview
   id="namedview1"
   pagecolor="#ffffff"
   bordercolor="#000000"
   borderopacity="0.25"
   inkscape:showpageshadow="2"
   inkscape:pageopacity="0.0"
   inkscape:pagecheckerboard="0"
   inkscape:deskcolor="#d1d1d1"
   inkscape:zoom="13.586552"
   inkscape:cx="26.239182"
   inkscape:cy="25.50316"
   inkscape:window-width="1920"
   inkscape:window-height="1009"
   inkscape:window-x="-8"
   inkscape:window-y="-8"
   inkscape:window-maximized="1"
   inkscape:current-layer="Layer_1" />
 <style
   type="text/css"
   id="style1">
  .st0{fill:#FF3621;}
 </style>
 <metadata
   id="metadata1">
  <ns:sfw>
   <ns:slices>
   </ns:slices>
   <ns:sliceSourceBounds
   bottomLeftOrigin="true"
   height="42"
   width="40.1"
   x="-69.1"
   y="-10.5">
   </ns:sliceSourceBounds>
  </ns:sfw>
 </metadata>
 <g
   id="g1"
   transform="matrix(0.65212894,0,0,0.65212894,6.9922083,7.3052923)">
  <path
   class="st0"
   d="M 40.1,31.1 V 23.7 L 39.3,23.2 20.1,33.7 1.9,23.7 V 19.4 L 20.1,29.3 40.2,18.4 V 11.1 L 39.4,10.6 20.1,21.2 2.6,11.6 20.1,2 34.2,9.7 35.3,9.1 V 8.3 L 20.1,0 0,10.9 V 12 L 20.1,23 38.3,13 v 4.4 L 20.1,27.4 0.8,16.8 0,17.3 v 7.4 L 20.1,35.6 38.3,25.7 V 30 L 20.1,40 0.8,29.5 0,30 v 1.1 L 20.1,42 Z"
   id="path1">
  </path>
 </g>
</svg>
