<?xml version="1.0" encoding="UTF-8" standalone="no"?>
<svg
   viewBox="0 0 128 128"
   version="1.1"
   id="svg2"
   sodipodi:docname="Grafana.svg"
   inkscape:version="1.4.2 (f4327f4, 2025-05-13)"
   xmlns:inkscape="http://www.inkscape.org/namespaces/inkscape"
   xmlns:sodipodi="http://sodipodi.sourceforge.net/DTD/sodipodi-0.dtd"
   xmlns="http://www.w3.org/2000/svg"
   xmlns:svg="http://www.w3.org/2000/svg">
  <defs
     id="defs2" />
  <sodipodi:namedview
     id="namedview2"
     pagecolor="#ffffff"
     bordercolor="#000000"
     borderopacity="0.25"
     inkscape:showpageshadow="2"
     inkscape:pageopacity="0.0"
     inkscape:pagecheckerboard="0"
     inkscape:deskcolor="#d1d1d1"
     inkscape:zoom="6.3046875"
     inkscape:cx="59.876084"
     inkscape:cy="70.344486"
     inkscape:window-width="1920"
     inkscape:window-height="1009"
     inkscape:window-x="-8"
     inkscape:window-y="-8"
     inkscape:window-maximized="1"
     inkscape:current-layer="svg2" />
  <linearGradient
     id="grafana-original-a"
     gradientUnits="userSpaceOnUse"
     x1="45.842"
     y1="89.57"
     x2="45.842"
     y2="8.802"
     gradientTransform="matrix(1.1999103,0,0,1.1999103,9.0074103,33.565049)">
    <stop
       offset="0"
       stop-color="#fcee1f"
       id="stop1" />
    <stop
       offset="1"
       stop-color="#f15b2a"
       id="stop2" />
  </linearGradient>
  <path
     fill="url(#grafana-original-a)"
     d="m 112.65821,57.91952 c -0.17128,-1.798454 -0.51384,-3.853828 -1.02768,-6.166123 -0.51385,-2.312297 -1.54153,-4.710233 -2.7405,-7.365091 -1.28461,-2.569217 -2.91178,-5.309716 -5.0528,-7.793293 -0.8564,-1.027688 -1.79845,-1.969734 -2.7405,-2.997422 1.54153,-5.909199 -1.798448,-11.133276 -1.798448,-11.133276 -5.737919,-0.342561 -9.334825,1.798453 -10.619432,2.740499 -0.171281,-0.08564 -0.513844,-0.17128 -0.685125,-0.256921 -0.942046,-0.342563 -1.969734,-0.770765 -2.997421,-1.113327 -1.027687,-0.256922 -2.055374,-0.685126 -3.083062,-0.856406 -1.027686,-0.256923 -2.141015,-0.513845 -3.339983,-0.685125 -0.17128,0 -0.342561,-0.08564 -0.599483,-0.08564 C 75.57584,14.328456 68.38203,10.902833 68.38203,10.902833 c -8.221496,5.309716 -9.763027,12.332244 -9.763027,12.332244 0,0 0,0.171281 -0.08564,0.342563 -0.513843,0.08564 -0.856406,0.256922 -1.284609,0.342561 -0.599485,0.171283 -1.198968,0.342563 -1.798453,0.685126 l -1.798451,0.770765 c -1.198968,0.599484 -2.397936,1.113328 -3.596906,1.798452 -1.113327,0.685125 -2.226654,1.28461 -3.339983,2.055373 -0.17128,-0.08564 -0.256921,-0.17128 -0.256921,-0.17128 -11.047635,-4.282029 -20.810663,0.856406 -20.810663,0.856406 -0.856406,11.818401 4.453312,19.09785 5.480998,20.468101 -0.256923,0.770766 -0.513844,1.455889 -0.770766,2.141014 -0.856405,2.654858 -1.455888,5.395358 -1.798451,8.221497 -0.08564,0.342562 -0.08564,0.856406 -0.171283,1.198968 -10.19123,5.052793 -13.188649,15.415306 -13.188649,15.415306 8.478418,9.763026 18.412726,10.36251 18.412726,10.36251 1.198968,2.226655 2.740499,4.453311 4.367669,6.423045 0.685125,0.856406 1.455891,1.62717 2.141015,2.483577 -3.083061,8.820979 0.513844,16.271709 0.513844,16.271709 9.506105,0.34257 15.757869,-4.11075 17.042477,-5.22407 0.942046,0.25692 1.884094,0.59948 2.82614,0.8564 2.911779,0.77077 5.909201,1.19898 8.820979,1.28461 H 73.1779 c 4.453309,6.42305 12.332244,7.27945 12.332244,7.27945 5.566638,-5.9092 5.909201,-11.64712 5.909201,-13.01737 v -0.51384 c 1.113327,-0.85641 2.226656,-1.71281 3.425624,-2.65486 2.226653,-1.969734 4.110747,-4.36767 5.823561,-6.765606 0.17128,-0.171282 0.25692,-0.513844 0.51384,-0.685125 6.3374,0.342563 10.70508,-3.939467 10.70508,-3.939467 -1.02769,-6.594325 -4.79588,-9.763027 -5.56664,-10.362511 l -0.0857,-0.08564 -0.0856,-0.08564 -0.0857,-0.08564 c 0,-0.342562 0.0857,-0.770766 0.0857,-1.198968 0.0856,-0.770766 0.0856,-1.45589 0.0856,-2.141014 V 72.73534 c 0,-0.171283 0,-0.342563 -0.0856,-0.599485 l -0.0856,-0.599469 -0.0856,-0.599485 c -0.0856,-0.770764 -0.25692,-1.455889 -0.34256,-2.141013 -0.68513,-2.826139 -1.79846,-5.566639 -3.16871,-7.878935 -1.54153,-2.483576 -3.339979,-4.53895 -5.395354,-6.423043 C 95.016253,52.695444 92.703957,51.153914 90.30602,50.126226 87.822443,49.012897 85.424507,48.327774 82.855289,48.070851 81.65632,47.89957 80.286072,47.89957 79.087104,47.89957 H 77.11737 c -0.685125,0.08564 -1.284608,0.171281 -1.884093,0.256922 -2.569217,0.513844 -4.881513,1.45589 -6.936888,2.654859 -2.055374,1.198968 -3.853826,2.826138 -5.395356,4.624591 -1.541531,1.798452 -2.65486,3.682546 -3.425624,5.737919 -0.770766,1.969734 -1.198968,4.110748 -1.284609,6.166122 v 2.226656 c 0,0.256922 0,0.513843 0.08564,0.770766 0.08564,1.027687 0.256922,1.969733 0.599485,2.911779 0.599483,1.884093 1.45589,3.596904 2.569217,5.052795 1.113328,1.45589 2.397936,2.654858 3.768186,3.596904 1.455891,0.942046 2.826139,1.627172 4.36767,2.055375 1.541531,0.428202 2.91178,0.685124 4.282029,0.599485 h 1.969734 c 0.171282,0 0.342562,-0.08564 0.513843,-0.08564 0.171281,0 0.256923,-0.08564 0.513844,-0.08564 0.256922,-0.08564 0.685125,-0.171281 0.942047,-0.256921 0.599484,-0.171281 1.113327,-0.513844 1.712811,-0.685125 0.599484,-0.256922 1.027688,-0.599485 1.455889,-0.856406 0.08564,-0.08564 0.256923,-0.171281 0.342563,-0.256922 0.513845,-0.342563 0.599484,-1.027687 0.171282,-1.541531 -0.342562,-0.342562 -0.942046,-0.513844 -1.45589,-0.25692 -0.08564,0.08564 -0.171281,0.08564 -0.342562,0.17128 -0.342562,0.17128 -0.856407,0.342562 -1.198968,0.513842 -0.513844,0.08564 -0.942047,0.256924 -1.455891,0.342563 -0.256922,0 -0.513844,0.08564 -0.770764,0.08564 h -1.541531 c 0,0 -0.08564,0 0,0 h -0.599485 c -0.08564,0 -0.256922,0 -0.342562,-0.08564 C 72.7497,81.385043 71.636373,81.04248 70.608685,80.614277 69.580998,80.100434 68.553311,79.50095 67.696905,78.644544 66.754859,77.788138 65.984094,76.84609 65.298969,75.732764 64.613843,74.619437 64.271281,73.334828 64.1,72.13586 64.01436,71.450735 63.92872,70.85125 64.01436,70.166126 v -0.599485 c 0,0.08564 0,0 0,0 v -0.428203 c 0,-0.342561 0.08564,-0.685124 0.171281,-1.027687 0.513844,-2.826139 1.884094,-5.566638 4.025108,-7.622012 0.599484,-0.599484 1.113327,-1.027686 1.798452,-1.45589 0.685126,-0.513843 1.284609,-0.856406 1.969735,-1.113327 0.685124,-0.256923 1.45589,-0.599484 2.141014,-0.770766 0.770764,-0.171281 1.54153,-0.342562 2.226654,-0.342562 0.342563,0 0.770766,-0.08564 1.113329,-0.08564 h 0.685125 c 0.08564,0 0,0 0,0 h 0.342562 c 0.856406,0.08564 1.712812,0.17128 2.483575,0.34256 1.627173,0.342563 3.168702,0.942048 4.710233,1.798454 2.997422,1.712811 5.566638,4.28203 7.108169,7.36509 0.770766,1.541531 1.28461,3.168702 1.627171,4.967155 0.08564,0.513842 0.08564,0.856405 0.171281,1.284608 v 2.312296 c 0,0.513843 -0.08564,0.942046 -0.08564,1.45589 -0.08564,0.513844 -0.08564,0.942046 -0.171281,1.45589 -0.08564,0.513844 -0.17128,0.942047 -0.256922,1.45589 -0.17128,0.942046 -0.599484,1.798451 -0.856406,2.740499 -0.685125,1.798451 -1.627171,3.511264 -2.740498,4.967153 -2.226655,3.083062 -5.395357,5.65228 -8.820981,7.279452 -1.798452,0.770764 -3.596904,1.455888 -5.480998,1.71281 -0.942046,0.171283 -1.884092,0.256922 -2.826139,0.256922 h -1.370248 c 0.08564,0 0,0 0,0 h -0.08564 c -0.513845,0 -1.027688,0 -1.54153,-0.08564 -2.055376,-0.171281 -4.025108,-0.599485 -5.994842,-1.113329 -1.969733,-0.599483 -3.853826,-1.284608 -5.65228,-2.226654 -3.596904,-1.884094 -6.765606,-4.624593 -9.334822,-7.707654 -1.19897,-1.627171 -2.397938,-3.339982 -3.339985,-5.052793 -0.942046,-1.712813 -1.62717,-3.682547 -2.141014,-5.566638 -0.599485,-1.884093 -0.856405,-3.853827 -0.942046,-5.823561 v -2.99742 c 0,-0.942047 0.08564,-1.969734 0.256922,-2.997421 0.08564,-1.027688 0.256922,-1.969734 0.513844,-2.997422 0.17128,-1.027685 0.513843,-1.969731 0.770763,-2.997419 0.599485,-1.969734 1.198968,-3.853826 2.055376,-5.652279 1.712811,-3.596904 3.853825,-6.765606 6.423044,-9.334825 0.685125,-0.685124 1.284608,-1.198968 2.055373,-1.798451 0.256922,-0.256922 0.942046,-0.856407 1.712812,-1.28461 0.770765,-0.428202 1.541531,-0.942046 2.397936,-1.284608 0.342563,-0.171281 0.770766,-0.342562 1.198968,-0.599483 0.171283,-0.08564 0.342563,-0.171283 0.685126,-0.256923 0.171281,-0.08565 0.342562,-0.17128 0.685125,-0.256922 0.856405,-0.342563 1.712811,-0.685124 2.569216,-0.942046 0.171283,-0.08564 0.513845,-0.08564 0.685125,-0.17128 0.171283,-0.08564 0.513844,-0.08564 0.685126,-0.171283 0.513842,-0.08564 0.856405,-0.17128 1.284608,-0.342563 0.171281,-0.08564 0.513843,-0.08564 0.685126,-0.17128 0.17128,0 0.513843,-0.08564 0.685123,-0.08564 0.171282,0 0.513845,-0.08564 0.685125,-0.08564 l 0.342563,-0.08564 0.342562,-0.08564 c 0.17128,0 0.513843,-0.08564 0.685126,-0.08564 0.25692,0 0.513842,-0.08564 0.770764,-0.08564 0.171282,0 0.599484,-0.08564 0.770766,-0.08564 0.17128,0 0.256921,0 0.513843,-0.08564 h 0.59949 c 0.256922,0 0.513845,0 0.770766,-0.08564 h 0.342562 c 0,0 0.08564,0 0,0 h 3.511264 c 1.712812,0.08564 3.425624,0.256922 4.967153,0.599485 3.168702,0.599483 6.337404,1.62717 9.077903,2.997419 2.740499,1.28461 5.309718,2.997421 7.365091,4.795872 0.08564,0.08564 0.256921,0.171283 0.342563,0.342563 0.08564,0.08564 0.25692,0.171283 0.342562,0.342563 0.256921,0.171282 0.513847,0.513845 0.770767,0.685125 0.25692,0.17128 0.51384,0.513843 0.77077,0.685125 0.17128,0.256921 0.51384,0.513843 0.68512,0.770765 0.94205,0.942046 1.79845,1.969734 2.56922,2.91178 1.54153,1.969733 2.7405,3.939467 3.68254,5.82356 0.0857,0.08564 0.0857,0.17128 0.17128,0.342562 0.0857,0.08564 0.0857,0.171281 0.17128,0.342562 0.0857,0.171282 0.17129,0.513844 0.34257,0.685126 0.0856,0.17128 0.17128,0.513842 0.25692,0.685124 0.0856,0.171281 0.17128,0.513844 0.25692,0.685124 0.34257,0.856406 0.68512,1.712813 0.94205,2.569218 0.51384,1.284609 0.77076,2.483577 1.02768,3.425624 0.0857,0.342563 0.51385,0.685125 0.85641,0.685125 0.51384,0 0.77076,-0.342562 0.77076,-0.856407 -0.25692,-1.45589 -0.25692,-2.654858 -0.34256,-4.110747 z"
     id="path2"
     style="fill:url(#grafana-original-a);stroke-width:0.856405" />
</svg>
